<svg width="39" height="39" viewBox="0 0 39 39" fill="none" xmlns="http://www.w3.org/2000/svg">
<path d="M11.375 26.4875C14.95 26.4875 17.875 23.5138 17.875 19.9063C17.875 18.0213 16.9487 16.2338 15.0962 14.7225C13.2437 13.2113 11.8462 10.9688 11.375 8.61255C10.9038 10.9688 9.5225 13.2275 7.65375 14.7225C5.785 16.2175 4.875 18.0375 4.875 19.9063C4.875 23.5138 7.8 26.4875 11.375 26.4875Z" stroke="white" stroke-width="2" stroke-linecap="round" stroke-linejoin="round"/>
<path d="M20.41 10.725C21.5276 8.9393 22.3199 6.96967 22.75 4.90747C23.5625 8.96997 26 12.87 29.25 15.47C32.5 18.07 34.125 21.1575 34.125 24.4075C34.1343 26.6537 33.4764 28.8521 32.2348 30.724C30.9932 32.5959 29.2237 34.057 27.1507 34.922C25.0777 35.7871 22.7945 36.0171 20.5906 35.583C18.3867 35.149 16.3614 34.0703 14.7712 32.4837" stroke="white" stroke-width="2" stroke-linecap="round" stroke-linejoin="round"/>
</svg>
