<svg width="44" height="44" viewBox="0 0 44 44" fill="none" xmlns="http://www.w3.org/2000/svg">
<path d="M32.45 14.1167C32.9866 13.6 33.6411 13.2219 34.3568 13.0151C35.0725 12.8083 35.8278 12.7791 36.5573 12.9299C37.2868 13.0808 37.9685 13.4072 38.5435 13.8809C39.1184 14.3546 39.5692 14.9613 39.8569 15.6485C40.1446 16.3357 40.2604 17.0826 40.1943 17.8246C40.1283 18.5666 39.8824 19.2814 39.4779 19.907C39.0734 20.5325 38.5225 21.0501 37.8729 21.4148C37.2234 21.7795 36.4947 21.9804 35.75 22H3.66666" stroke="white" stroke-width="2" stroke-linecap="round" stroke-linejoin="round"/>
<path d="M17.6 8.43338C18.0247 8.00017 18.5503 7.67913 19.1297 7.49903C19.709 7.31892 20.324 7.28539 20.9195 7.40144C21.515 7.51749 22.0724 7.77949 22.5417 8.16395C23.0111 8.54841 23.3776 9.04333 23.6086 9.60432C23.8396 10.1653 23.9278 10.7749 23.8653 11.3783C23.8028 11.9818 23.5915 12.5603 23.2503 13.062C22.9092 13.5637 22.4489 13.973 21.9108 14.253C21.3726 14.5331 20.7733 14.6752 20.1667 14.6667H3.66666" stroke="white" stroke-width="2" stroke-linecap="round" stroke-linejoin="round"/>
<path d="M23.1 35.5667C23.5247 35.9999 24.0503 36.321 24.6297 36.5011C25.209 36.6812 25.824 36.7147 26.4195 36.5986C27.015 36.4826 27.5724 36.2206 28.0417 35.8361C28.5111 35.4517 28.8776 34.9568 29.1086 34.3958C29.3396 33.8348 29.4278 33.2252 29.3653 32.6217C29.3028 32.0183 29.0915 31.4398 28.7503 30.9381C28.4092 30.4363 27.9489 30.0271 27.4108 29.747C26.8726 29.467 26.2733 29.3248 25.6667 29.3334H3.66666" stroke="white" stroke-width="2" stroke-linecap="round" stroke-linejoin="round"/>
</svg>
